# xmcd CD database file
#
# Track frame offsets:
#	150
#	104517
#	228340
#	311112
#
# Disc length: 4253 seconds
#
# Revision: 2
# Processed by: cddbd v1.5.2PL0 Copyright (c) Steve Scherf et al.
# Submitted via: CDex 1.70beta2
#
DISCID=2e109b04
DTITLE=吉田直 - TrinityBloodR.A.MⅡ 第1章 NEVER LAND
DYEAR=2002
DGENRE=アニメ
TTITLE0=第１話　ダンディライオン
TTITLE1=第２話　妖精
TTITLE2=第３話　ミストレス
TTITLE3=BounusTraxk ネバーランド
EXTD=YEAR: 2002
EXTT0=
EXTT1=
EXTT2=
EXTT3=
PLAYORDER=
